<mxfile host="app.diagrams.net" modified="2021-02-13T22:51:15.979Z" agent="5.0 (Windows NT 10.0; Win64; x64) AppleWebKit/537.36 (KHTML, like Gecko) Chrome/88.0.4324.150 Safari/537.36" etag="i9vhM_mVKbfBo5bG9NPb" version="14.3.1" type="github" pages="2">
  <diagram id="SonYWKchmh3i6-9tKwjN" name="Prod">
    <mxGraphModel dx="782" dy="508" grid="1" gridSize="10" guides="1" tooltips="1" connect="1" arrows="1" fold="1" page="1" pageScale="1" pageWidth="850" pageHeight="1100" math="0" shadow="0">
      <root>
        <mxCell id="0" />
        <mxCell id="1" parent="0" />
        <mxCell id="CJOSZ9s3HL_Pbz2OG9Kx-1" value="Subscription" style="shape=table;html=1;whiteSpace=wrap;startSize=30;container=1;collapsible=0;childLayout=tableLayout;fixedRows=1;rowLines=0;fontStyle=1;align=center;" parent="1" vertex="1">
          <mxGeometry x="335" y="50" width="180" height="270" as="geometry" />
        </mxCell>
        <mxCell id="CJOSZ9s3HL_Pbz2OG9Kx-2" value="" style="shape=partialRectangle;html=1;whiteSpace=wrap;collapsible=0;dropTarget=0;pointerEvents=0;fillColor=none;top=0;left=0;bottom=1;right=0;points=[[0,0.5],[1,0.5]];portConstraint=eastwest;" parent="CJOSZ9s3HL_Pbz2OG9Kx-1" vertex="1">
          <mxGeometry y="30" width="180" height="30" as="geometry" />
        </mxCell>
        <mxCell id="CJOSZ9s3HL_Pbz2OG9Kx-3" value="1" style="shape=partialRectangle;html=1;whiteSpace=wrap;connectable=0;fillColor=none;top=0;left=0;bottom=0;right=0;overflow=hidden;" parent="CJOSZ9s3HL_Pbz2OG9Kx-2" vertex="1">
          <mxGeometry width="40" height="30" as="geometry" />
        </mxCell>
        <mxCell id="CJOSZ9s3HL_Pbz2OG9Kx-4" value="Id" style="shape=partialRectangle;html=1;whiteSpace=wrap;connectable=0;fillColor=none;top=0;left=0;bottom=0;right=0;align=left;spacingLeft=6;overflow=hidden;" parent="CJOSZ9s3HL_Pbz2OG9Kx-2" vertex="1">
          <mxGeometry x="40" width="140" height="30" as="geometry" />
        </mxCell>
        <mxCell id="CJOSZ9s3HL_Pbz2OG9Kx-5" value="" style="shape=partialRectangle;html=1;whiteSpace=wrap;collapsible=0;dropTarget=0;pointerEvents=0;fillColor=none;top=0;left=0;bottom=0;right=0;points=[[0,0.5],[1,0.5]];portConstraint=eastwest;" parent="CJOSZ9s3HL_Pbz2OG9Kx-1" vertex="1">
          <mxGeometry y="60" width="180" height="30" as="geometry" />
        </mxCell>
        <mxCell id="CJOSZ9s3HL_Pbz2OG9Kx-6" value="2" style="shape=partialRectangle;html=1;whiteSpace=wrap;connectable=0;fillColor=none;top=0;left=0;bottom=0;right=0;overflow=hidden;" parent="CJOSZ9s3HL_Pbz2OG9Kx-5" vertex="1">
          <mxGeometry width="40" height="30" as="geometry" />
        </mxCell>
        <mxCell id="CJOSZ9s3HL_Pbz2OG9Kx-7" value="Name" style="shape=partialRectangle;html=1;whiteSpace=wrap;connectable=0;fillColor=none;top=0;left=0;bottom=0;right=0;align=left;spacingLeft=6;overflow=hidden;" parent="CJOSZ9s3HL_Pbz2OG9Kx-5" vertex="1">
          <mxGeometry x="40" width="140" height="30" as="geometry" />
        </mxCell>
        <mxCell id="CJOSZ9s3HL_Pbz2OG9Kx-8" value="" style="shape=partialRectangle;html=1;whiteSpace=wrap;collapsible=0;dropTarget=0;pointerEvents=0;fillColor=none;top=0;left=0;bottom=0;right=0;points=[[0,0.5],[1,0.5]];portConstraint=eastwest;" parent="CJOSZ9s3HL_Pbz2OG9Kx-1" vertex="1">
          <mxGeometry y="90" width="180" height="30" as="geometry" />
        </mxCell>
        <mxCell id="CJOSZ9s3HL_Pbz2OG9Kx-9" value="3" style="shape=partialRectangle;html=1;whiteSpace=wrap;connectable=0;fillColor=none;top=0;left=0;bottom=0;right=0;overflow=hidden;" parent="CJOSZ9s3HL_Pbz2OG9Kx-8" vertex="1">
          <mxGeometry width="40" height="30" as="geometry" />
        </mxCell>
        <mxCell id="CJOSZ9s3HL_Pbz2OG9Kx-10" value="Price" style="shape=partialRectangle;html=1;whiteSpace=wrap;connectable=0;fillColor=none;top=0;left=0;bottom=0;right=0;align=left;spacingLeft=6;overflow=hidden;" parent="CJOSZ9s3HL_Pbz2OG9Kx-8" vertex="1">
          <mxGeometry x="40" width="140" height="30" as="geometry" />
        </mxCell>
        <mxCell id="CJOSZ9s3HL_Pbz2OG9Kx-11" value="4" style="shape=partialRectangle;html=1;whiteSpace=wrap;connectable=0;fillColor=none;top=0;left=0;bottom=0;right=0;overflow=hidden;" parent="1" vertex="1">
          <mxGeometry x="335" y="170" width="40" height="30" as="geometry" />
        </mxCell>
        <mxCell id="CJOSZ9s3HL_Pbz2OG9Kx-12" value="Currency" style="shape=partialRectangle;html=1;whiteSpace=wrap;connectable=0;fillColor=none;top=0;left=0;bottom=0;right=0;align=left;spacingLeft=6;overflow=hidden;" parent="1" vertex="1">
          <mxGeometry x="375" y="170" width="140" height="30" as="geometry" />
        </mxCell>
        <mxCell id="CJOSZ9s3HL_Pbz2OG9Kx-13" value="5" style="shape=partialRectangle;html=1;whiteSpace=wrap;connectable=0;fillColor=none;top=0;left=0;bottom=0;right=0;overflow=hidden;" parent="1" vertex="1">
          <mxGeometry x="335" y="200" width="40" height="30" as="geometry" />
        </mxCell>
        <mxCell id="CJOSZ9s3HL_Pbz2OG9Kx-14" value="Regularity" style="shape=partialRectangle;html=1;whiteSpace=wrap;connectable=0;fillColor=none;top=0;left=0;bottom=0;right=0;align=left;spacingLeft=6;overflow=hidden;" parent="1" vertex="1">
          <mxGeometry x="375" y="200" width="140" height="30" as="geometry" />
        </mxCell>
        <mxCell id="CJOSZ9s3HL_Pbz2OG9Kx-15" value="6" style="shape=partialRectangle;html=1;whiteSpace=wrap;connectable=0;fillColor=none;top=0;left=0;bottom=0;right=0;overflow=hidden;" parent="1" vertex="1">
          <mxGeometry x="335" y="230" width="40" height="30" as="geometry" />
        </mxCell>
        <mxCell id="CJOSZ9s3HL_Pbz2OG9Kx-16" value="Next renewal" style="shape=partialRectangle;html=1;whiteSpace=wrap;connectable=0;fillColor=none;top=0;left=0;bottom=0;right=0;align=left;spacingLeft=6;overflow=hidden;" parent="1" vertex="1">
          <mxGeometry x="375" y="230" width="140" height="30" as="geometry" />
        </mxCell>
        <mxCell id="CJOSZ9s3HL_Pbz2OG9Kx-17" value="7" style="shape=partialRectangle;html=1;whiteSpace=wrap;connectable=0;fillColor=none;top=0;left=0;bottom=0;right=0;overflow=hidden;" parent="1" vertex="1">
          <mxGeometry x="335" y="260" width="40" height="30" as="geometry" />
        </mxCell>
        <mxCell id="CJOSZ9s3HL_Pbz2OG9Kx-18" value="Autorenewal" style="shape=partialRectangle;html=1;whiteSpace=wrap;connectable=0;fillColor=none;top=0;left=0;bottom=0;right=0;align=left;spacingLeft=6;overflow=hidden;" parent="1" vertex="1">
          <mxGeometry x="375" y="260" width="140" height="30" as="geometry" />
        </mxCell>
        <mxCell id="CJOSZ9s3HL_Pbz2OG9Kx-19" value="8" style="shape=partialRectangle;html=1;whiteSpace=wrap;connectable=0;fillColor=none;top=0;left=0;bottom=0;right=0;overflow=hidden;" parent="1" vertex="1">
          <mxGeometry x="335" y="290" width="40" height="30" as="geometry" />
        </mxCell>
        <mxCell id="CJOSZ9s3HL_Pbz2OG9Kx-20" value="Link" style="shape=partialRectangle;html=1;whiteSpace=wrap;connectable=0;fillColor=none;top=0;left=0;bottom=0;right=0;align=left;spacingLeft=6;overflow=hidden;" parent="1" vertex="1">
          <mxGeometry x="375" y="290" width="140" height="30" as="geometry" />
        </mxCell>
        <mxCell id="CJOSZ9s3HL_Pbz2OG9Kx-24" style="edgeStyle=orthogonalEdgeStyle;rounded=0;orthogonalLoop=1;jettySize=auto;html=1;" parent="1" source="CJOSZ9s3HL_Pbz2OG9Kx-21" edge="1">
          <mxGeometry relative="1" as="geometry">
            <mxPoint x="695" y="310" as="targetPoint" />
          </mxGeometry>
        </mxCell>
        <mxCell id="CJOSZ9s3HL_Pbz2OG9Kx-21" value="Mongo&lt;br&gt;port: 27017&lt;br&gt;db: kubbin&lt;br&gt;collection: subscription&lt;br&gt;user: admin&lt;br&gt;pass: kubbin" style="shape=datastore;whiteSpace=wrap;html=1;" parent="1" vertex="1">
          <mxGeometry x="610" y="80" width="170" height="170" as="geometry" />
        </mxCell>
        <mxCell id="CJOSZ9s3HL_Pbz2OG9Kx-23" style="edgeStyle=orthogonalEdgeStyle;rounded=0;orthogonalLoop=1;jettySize=auto;html=1;entryX=0.5;entryY=1;entryDx=0;entryDy=0;" parent="1" source="CJOSZ9s3HL_Pbz2OG9Kx-22" target="CJOSZ9s3HL_Pbz2OG9Kx-21" edge="1">
          <mxGeometry relative="1" as="geometry" />
        </mxCell>
        <mxCell id="CJOSZ9s3HL_Pbz2OG9Kx-22" value="API With Spring" style="rounded=1;whiteSpace=wrap;html=1;" parent="1" vertex="1">
          <mxGeometry x="635" y="310" width="120" height="50" as="geometry" />
        </mxCell>
        <mxCell id="CJOSZ9s3HL_Pbz2OG9Kx-30" style="edgeStyle=orthogonalEdgeStyle;rounded=0;orthogonalLoop=1;jettySize=auto;html=1;exitX=1;exitY=0.3333333333333333;exitDx=0;exitDy=0;exitPerimeter=0;" parent="1" source="CJOSZ9s3HL_Pbz2OG9Kx-26" target="CJOSZ9s3HL_Pbz2OG9Kx-29" edge="1">
          <mxGeometry relative="1" as="geometry" />
        </mxCell>
        <mxCell id="CJOSZ9s3HL_Pbz2OG9Kx-26" value="User" style="shape=umlActor;verticalLabelPosition=bottom;verticalAlign=top;html=1;outlineConnect=0;" parent="1" vertex="1">
          <mxGeometry x="250" y="350" width="30" height="60" as="geometry" />
        </mxCell>
        <mxCell id="CJOSZ9s3HL_Pbz2OG9Kx-31" style="edgeStyle=orthogonalEdgeStyle;rounded=0;orthogonalLoop=1;jettySize=auto;html=1;entryX=0.5;entryY=1;entryDx=0;entryDy=0;" parent="1" source="CJOSZ9s3HL_Pbz2OG9Kx-29" target="CJOSZ9s3HL_Pbz2OG9Kx-22" edge="1">
          <mxGeometry relative="1" as="geometry" />
        </mxCell>
        <mxCell id="CJOSZ9s3HL_Pbz2OG9Kx-29" value="kubb.in frontend" style="whiteSpace=wrap;html=1;aspect=fixed;" parent="1" vertex="1">
          <mxGeometry x="390" y="350" width="110" height="110" as="geometry" />
        </mxCell>
      </root>
    </mxGraphModel>
  </diagram>
  <diagram id="x6PYE7fX1iqTkR0nMZ5Z" name="Test">
    <mxGraphModel dx="920" dy="531" grid="1" gridSize="10" guides="1" tooltips="1" connect="1" arrows="1" fold="1" page="1" pageScale="1" pageWidth="850" pageHeight="1100" math="0" shadow="0">
      <root>
        <mxCell id="_dsBPcosfQ0vliTjdBxO-0" />
        <mxCell id="_dsBPcosfQ0vliTjdBxO-1" parent="_dsBPcosfQ0vliTjdBxO-0" />
        <mxCell id="zOezfIdQOex3UV9iFoa3-0" value="Subscription" style="shape=table;html=1;whiteSpace=wrap;startSize=30;container=1;collapsible=0;childLayout=tableLayout;fixedRows=1;rowLines=0;fontStyle=1;align=center;" parent="_dsBPcosfQ0vliTjdBxO-1" vertex="1">
          <mxGeometry x="305" y="50" width="185" height="310" as="geometry" />
        </mxCell>
        <mxCell id="zOezfIdQOex3UV9iFoa3-1" value="" style="shape=partialRectangle;html=1;whiteSpace=wrap;collapsible=0;dropTarget=0;pointerEvents=0;fillColor=none;top=0;left=0;bottom=1;right=0;points=[[0,0.5],[1,0.5]];portConstraint=eastwest;" parent="zOezfIdQOex3UV9iFoa3-0" vertex="1">
          <mxGeometry y="30" width="185" height="30" as="geometry" />
        </mxCell>
        <mxCell id="zOezfIdQOex3UV9iFoa3-2" value="1" style="shape=partialRectangle;html=1;whiteSpace=wrap;connectable=0;fillColor=none;top=0;left=0;bottom=0;right=0;overflow=hidden;" parent="zOezfIdQOex3UV9iFoa3-1" vertex="1">
          <mxGeometry width="41" height="30" as="geometry" />
        </mxCell>
        <mxCell id="zOezfIdQOex3UV9iFoa3-3" value="Id" style="shape=partialRectangle;html=1;whiteSpace=wrap;connectable=0;fillColor=none;top=0;left=0;bottom=0;right=0;align=left;spacingLeft=6;overflow=hidden;" parent="zOezfIdQOex3UV9iFoa3-1" vertex="1">
          <mxGeometry x="41" width="144" height="30" as="geometry" />
        </mxCell>
        <mxCell id="zOezfIdQOex3UV9iFoa3-4" value="" style="shape=partialRectangle;html=1;whiteSpace=wrap;collapsible=0;dropTarget=0;pointerEvents=0;fillColor=none;top=0;left=0;bottom=0;right=0;points=[[0,0.5],[1,0.5]];portConstraint=eastwest;" parent="zOezfIdQOex3UV9iFoa3-0" vertex="1">
          <mxGeometry y="60" width="185" height="30" as="geometry" />
        </mxCell>
        <mxCell id="zOezfIdQOex3UV9iFoa3-5" value="2" style="shape=partialRectangle;html=1;whiteSpace=wrap;connectable=0;fillColor=none;top=0;left=0;bottom=0;right=0;overflow=hidden;" parent="zOezfIdQOex3UV9iFoa3-4" vertex="1">
          <mxGeometry width="41" height="30" as="geometry" />
        </mxCell>
        <mxCell id="zOezfIdQOex3UV9iFoa3-6" value="Name" style="shape=partialRectangle;html=1;whiteSpace=wrap;connectable=0;fillColor=none;top=0;left=0;bottom=0;right=0;align=left;spacingLeft=6;overflow=hidden;" parent="zOezfIdQOex3UV9iFoa3-4" vertex="1">
          <mxGeometry x="41" width="144" height="30" as="geometry" />
        </mxCell>
        <mxCell id="zOezfIdQOex3UV9iFoa3-7" value="" style="shape=partialRectangle;html=1;whiteSpace=wrap;collapsible=0;dropTarget=0;pointerEvents=0;fillColor=none;top=0;left=0;bottom=0;right=0;points=[[0,0.5],[1,0.5]];portConstraint=eastwest;" parent="zOezfIdQOex3UV9iFoa3-0" vertex="1">
          <mxGeometry y="90" width="185" height="30" as="geometry" />
        </mxCell>
        <mxCell id="zOezfIdQOex3UV9iFoa3-8" value="3" style="shape=partialRectangle;html=1;whiteSpace=wrap;connectable=0;fillColor=none;top=0;left=0;bottom=0;right=0;overflow=hidden;" parent="zOezfIdQOex3UV9iFoa3-7" vertex="1">
          <mxGeometry width="41" height="30" as="geometry" />
        </mxCell>
        <mxCell id="zOezfIdQOex3UV9iFoa3-9" value="Price" style="shape=partialRectangle;html=1;whiteSpace=wrap;connectable=0;fillColor=none;top=0;left=0;bottom=0;right=0;align=left;spacingLeft=6;overflow=hidden;" parent="zOezfIdQOex3UV9iFoa3-7" vertex="1">
          <mxGeometry x="41" width="144" height="30" as="geometry" />
        </mxCell>
        <mxCell id="zOezfIdQOex3UV9iFoa3-10" value="4" style="shape=partialRectangle;html=1;whiteSpace=wrap;connectable=0;fillColor=none;top=0;left=0;bottom=0;right=0;overflow=hidden;" parent="_dsBPcosfQ0vliTjdBxO-1" vertex="1">
          <mxGeometry x="305" y="170" width="40" height="30" as="geometry" />
        </mxCell>
        <mxCell id="zOezfIdQOex3UV9iFoa3-11" value="Currency" style="shape=partialRectangle;html=1;whiteSpace=wrap;connectable=0;fillColor=none;top=0;left=0;bottom=0;right=0;align=left;spacingLeft=6;overflow=hidden;" parent="_dsBPcosfQ0vliTjdBxO-1" vertex="1">
          <mxGeometry x="345" y="170" width="140" height="30" as="geometry" />
        </mxCell>
        <mxCell id="zOezfIdQOex3UV9iFoa3-12" value="5" style="shape=partialRectangle;html=1;whiteSpace=wrap;connectable=0;fillColor=none;top=0;left=0;bottom=0;right=0;overflow=hidden;" parent="_dsBPcosfQ0vliTjdBxO-1" vertex="1">
          <mxGeometry x="305" y="200" width="40" height="30" as="geometry" />
        </mxCell>
        <mxCell id="zOezfIdQOex3UV9iFoa3-13" value="Regularity" style="shape=partialRectangle;html=1;whiteSpace=wrap;connectable=0;fillColor=none;top=0;left=0;bottom=0;right=0;align=left;spacingLeft=6;overflow=hidden;" parent="_dsBPcosfQ0vliTjdBxO-1" vertex="1">
          <mxGeometry x="345" y="200" width="140" height="30" as="geometry" />
        </mxCell>
        <mxCell id="zOezfIdQOex3UV9iFoa3-14" value="6" style="shape=partialRectangle;html=1;whiteSpace=wrap;connectable=0;fillColor=none;top=0;left=0;bottom=0;right=0;overflow=hidden;" parent="_dsBPcosfQ0vliTjdBxO-1" vertex="1">
          <mxGeometry x="305" y="230" width="40" height="30" as="geometry" />
        </mxCell>
        <mxCell id="zOezfIdQOex3UV9iFoa3-15" value="Next renewal" style="shape=partialRectangle;html=1;whiteSpace=wrap;connectable=0;fillColor=none;top=0;left=0;bottom=0;right=0;align=left;spacingLeft=6;overflow=hidden;" parent="_dsBPcosfQ0vliTjdBxO-1" vertex="1">
          <mxGeometry x="345" y="230" width="140" height="30" as="geometry" />
        </mxCell>
        <mxCell id="zOezfIdQOex3UV9iFoa3-16" value="7" style="shape=partialRectangle;html=1;whiteSpace=wrap;connectable=0;fillColor=none;top=0;left=0;bottom=0;right=0;overflow=hidden;" parent="_dsBPcosfQ0vliTjdBxO-1" vertex="1">
          <mxGeometry x="305" y="260" width="40" height="30" as="geometry" />
        </mxCell>
        <mxCell id="zOezfIdQOex3UV9iFoa3-17" value="Autorenewal" style="shape=partialRectangle;html=1;whiteSpace=wrap;connectable=0;fillColor=none;top=0;left=0;bottom=0;right=0;align=left;spacingLeft=6;overflow=hidden;" parent="_dsBPcosfQ0vliTjdBxO-1" vertex="1">
          <mxGeometry x="345" y="260" width="140" height="30" as="geometry" />
        </mxCell>
        <mxCell id="zOezfIdQOex3UV9iFoa3-18" value="8" style="shape=partialRectangle;html=1;whiteSpace=wrap;connectable=0;fillColor=none;top=0;left=0;bottom=0;right=0;overflow=hidden;" parent="_dsBPcosfQ0vliTjdBxO-1" vertex="1">
          <mxGeometry x="305" y="290" width="40" height="30" as="geometry" />
        </mxCell>
        <mxCell id="zOezfIdQOex3UV9iFoa3-19" value="Link" style="shape=partialRectangle;html=1;whiteSpace=wrap;connectable=0;fillColor=none;top=0;left=0;bottom=0;right=0;align=left;spacingLeft=6;overflow=hidden;" parent="_dsBPcosfQ0vliTjdBxO-1" vertex="1">
          <mxGeometry x="345" y="290" width="140" height="30" as="geometry" />
        </mxCell>
        <mxCell id="zOezfIdQOex3UV9iFoa3-20" style="edgeStyle=orthogonalEdgeStyle;rounded=0;orthogonalLoop=1;jettySize=auto;html=1;" parent="_dsBPcosfQ0vliTjdBxO-1" source="zOezfIdQOex3UV9iFoa3-21" edge="1">
          <mxGeometry relative="1" as="geometry">
            <mxPoint x="665" y="310" as="targetPoint" />
          </mxGeometry>
        </mxCell>
        <mxCell id="VYdCvkyGFiFePREtTgOY-7" style="edgeStyle=orthogonalEdgeStyle;rounded=0;orthogonalLoop=1;jettySize=auto;html=1;exitX=0.15;exitY=0.95;exitDx=0;exitDy=0;exitPerimeter=0;entryX=0.25;entryY=0;entryDx=0;entryDy=0;" edge="1" parent="_dsBPcosfQ0vliTjdBxO-1" source="zOezfIdQOex3UV9iFoa3-21" target="zOezfIdQOex3UV9iFoa3-23">
          <mxGeometry relative="1" as="geometry" />
        </mxCell>
        <mxCell id="zOezfIdQOex3UV9iFoa3-21" value="Mongo&lt;br&gt;port: 27018&lt;br&gt;db: kubbin-test&lt;br&gt;collection: subscription-test&lt;br&gt;user: test&lt;br&gt;pass: test" style="shape=datastore;whiteSpace=wrap;html=1;" parent="_dsBPcosfQ0vliTjdBxO-1" vertex="1">
          <mxGeometry x="580" y="80" width="170" height="170" as="geometry" />
        </mxCell>
        <mxCell id="zOezfIdQOex3UV9iFoa3-22" style="edgeStyle=orthogonalEdgeStyle;rounded=0;orthogonalLoop=1;jettySize=auto;html=1;entryX=0.5;entryY=1;entryDx=0;entryDy=0;" parent="_dsBPcosfQ0vliTjdBxO-1" source="zOezfIdQOex3UV9iFoa3-23" target="zOezfIdQOex3UV9iFoa3-21" edge="1">
          <mxGeometry relative="1" as="geometry" />
        </mxCell>
        <mxCell id="VYdCvkyGFiFePREtTgOY-8" style="edgeStyle=orthogonalEdgeStyle;rounded=0;orthogonalLoop=1;jettySize=auto;html=1;exitX=0.25;exitY=1;exitDx=0;exitDy=0;entryX=0.406;entryY=-0.039;entryDx=0;entryDy=0;entryPerimeter=0;" edge="1" parent="_dsBPcosfQ0vliTjdBxO-1" source="zOezfIdQOex3UV9iFoa3-23" target="VYdCvkyGFiFePREtTgOY-0">
          <mxGeometry relative="1" as="geometry" />
        </mxCell>
        <mxCell id="zOezfIdQOex3UV9iFoa3-23" value="API With Spring" style="rounded=1;whiteSpace=wrap;html=1;" parent="_dsBPcosfQ0vliTjdBxO-1" vertex="1">
          <mxGeometry x="605" y="310" width="120" height="50" as="geometry" />
        </mxCell>
        <mxCell id="zOezfIdQOex3UV9iFoa3-24" style="edgeStyle=orthogonalEdgeStyle;rounded=0;orthogonalLoop=1;jettySize=auto;html=1;exitX=1;exitY=0.3333333333333333;exitDx=0;exitDy=0;exitPerimeter=0;" parent="_dsBPcosfQ0vliTjdBxO-1" source="zOezfIdQOex3UV9iFoa3-25" target="zOezfIdQOex3UV9iFoa3-27" edge="1">
          <mxGeometry relative="1" as="geometry" />
        </mxCell>
        <mxCell id="zOezfIdQOex3UV9iFoa3-25" value="Tester" style="shape=umlActor;verticalLabelPosition=bottom;verticalAlign=top;html=1;outlineConnect=0;" parent="_dsBPcosfQ0vliTjdBxO-1" vertex="1">
          <mxGeometry x="45" y="390" width="30" height="60" as="geometry" />
        </mxCell>
        <mxCell id="zOezfIdQOex3UV9iFoa3-26" style="edgeStyle=orthogonalEdgeStyle;rounded=0;orthogonalLoop=1;jettySize=auto;html=1;entryX=0.5;entryY=1;entryDx=0;entryDy=0;" parent="_dsBPcosfQ0vliTjdBxO-1" source="VYdCvkyGFiFePREtTgOY-0" target="zOezfIdQOex3UV9iFoa3-23" edge="1">
          <mxGeometry relative="1" as="geometry">
            <mxPoint x="690" y="450" as="sourcePoint" />
            <Array as="points">
              <mxPoint x="665" y="435" />
            </Array>
          </mxGeometry>
        </mxCell>
        <mxCell id="VYdCvkyGFiFePREtTgOY-4" style="edgeStyle=orthogonalEdgeStyle;rounded=0;orthogonalLoop=1;jettySize=auto;html=1;exitX=1;exitY=0.5;exitDx=0;exitDy=0;" edge="1" parent="_dsBPcosfQ0vliTjdBxO-1" source="zOezfIdQOex3UV9iFoa3-27" target="VYdCvkyGFiFePREtTgOY-2">
          <mxGeometry relative="1" as="geometry" />
        </mxCell>
        <mxCell id="zOezfIdQOex3UV9iFoa3-27" value="localhost:7070 login" style="whiteSpace=wrap;html=1;aspect=fixed;" parent="_dsBPcosfQ0vliTjdBxO-1" vertex="1">
          <mxGeometry x="195" y="420" width="110" height="110" as="geometry" />
        </mxCell>
        <mxCell id="VYdCvkyGFiFePREtTgOY-0" value="frontend" style="whiteSpace=wrap;html=1;aspect=fixed;" vertex="1" parent="_dsBPcosfQ0vliTjdBxO-1">
          <mxGeometry x="470" y="420" width="110" height="110" as="geometry" />
        </mxCell>
        <mxCell id="VYdCvkyGFiFePREtTgOY-5" style="edgeStyle=orthogonalEdgeStyle;rounded=0;orthogonalLoop=1;jettySize=auto;html=1;exitX=1;exitY=0.5;exitDx=0;exitDy=0;entryX=0;entryY=0.5;entryDx=0;entryDy=0;" edge="1" parent="_dsBPcosfQ0vliTjdBxO-1" source="VYdCvkyGFiFePREtTgOY-2" target="VYdCvkyGFiFePREtTgOY-0">
          <mxGeometry relative="1" as="geometry" />
        </mxCell>
        <mxCell id="VYdCvkyGFiFePREtTgOY-2" value="" style="rounded=0;whiteSpace=wrap;html=1;" vertex="1" parent="_dsBPcosfQ0vliTjdBxO-1">
          <mxGeometry x="335" y="445" width="120" height="60" as="geometry" />
        </mxCell>
        <mxCell id="VYdCvkyGFiFePREtTgOY-3" value="Token goes to localstorage" style="text;html=1;strokeColor=none;fillColor=none;align=center;verticalAlign=middle;whiteSpace=wrap;rounded=0;" vertex="1" parent="_dsBPcosfQ0vliTjdBxO-1">
          <mxGeometry x="375" y="465" width="40" height="20" as="geometry" />
        </mxCell>
        <mxCell id="VYdCvkyGFiFePREtTgOY-6" value="Call with token&amp;nbsp; or username" style="text;html=1;strokeColor=none;fillColor=none;align=center;verticalAlign=middle;whiteSpace=wrap;rounded=0;" vertex="1" parent="_dsBPcosfQ0vliTjdBxO-1">
          <mxGeometry x="605" y="440" width="125" height="25" as="geometry" />
        </mxCell>
        <mxCell id="VYdCvkyGFiFePREtTgOY-9" value="User subscription list" style="text;html=1;strokeColor=none;fillColor=none;align=center;verticalAlign=middle;whiteSpace=wrap;rounded=0;" vertex="1" parent="_dsBPcosfQ0vliTjdBxO-1">
          <mxGeometry x="490" y="360" width="120" height="30" as="geometry" />
        </mxCell>
        <mxCell id="VYdCvkyGFiFePREtTgOY-10" value="9" style="shape=partialRectangle;html=1;whiteSpace=wrap;connectable=0;fillColor=none;top=0;left=0;bottom=0;right=0;overflow=hidden;" vertex="1" parent="_dsBPcosfQ0vliTjdBxO-1">
          <mxGeometry x="305" y="320" width="40" height="30" as="geometry" />
        </mxCell>
        <mxCell id="VYdCvkyGFiFePREtTgOY-11" value="Userid/Username" style="shape=partialRectangle;html=1;whiteSpace=wrap;connectable=0;fillColor=none;top=0;left=0;bottom=0;right=0;align=left;spacingLeft=6;overflow=hidden;" vertex="1" parent="_dsBPcosfQ0vliTjdBxO-1">
          <mxGeometry x="350" y="320" width="135" height="30" as="geometry" />
        </mxCell>
        <mxCell id="VYdCvkyGFiFePREtTgOY-12" value="Frontend with Vue.JS&lt;br&gt;Components: NavBar, ListSubs, LoginPage, RegistrationPage, ConfigurationPage&lt;br&gt;methods: sendRegistration(), validateFields(), sendLogin(), goToUserPage()[Main Page], CRUD Related Methods, ConfigurationPage methods # TODO" style="rounded=0;whiteSpace=wrap;html=1;" vertex="1" parent="_dsBPcosfQ0vliTjdBxO-1">
          <mxGeometry x="110" y="620" width="650" height="410" as="geometry" />
        </mxCell>
      </root>
    </mxGraphModel>
  </diagram>
</mxfile>
